<?xml version="1.0" encoding="utf-8"?>
<svg version="1.2" baseProfile="tiny" xmlns="http://www.w3.org/2000/svg" x="0px" y="0px" width="41.999px" height="42px" viewBox="0 0 41.999 42" xml:space="preserve">
<polygon points="39,16.5 6,16.5 6,18 19.5,20.398 19.5,42 25.5,42 25.5,20.398 39,18" fill="gray"/>
<path d="M4.5,21.124v-7.487H4.474L4.5,3h3C8.329,3,9,2.329,9,1.5C9,0.671,8.329,0,7.5,0h-6C0.671,0,0,0.671,0,1.5
	C0,2.329,0.671,3,1.5,3H3v10.637c-0.87,0.311-1.5,1.134-1.5,2.112v6c0,1.244,1.008,2.25,2.25,2.25c0.117,0,0.231-0.016,0.346-0.034
	L3,36l12.955,6H18C18,28.17,10.535,22.004,4.5,21.124" fill="white"/>
<path d="M38.935,13.5C38.27,4.945,31.904,0,22.5,0C13.099,0,6.729,4.945,6.067,13.5H38.935z M32.994,6.041
	c0.053,0.771-0.227,1.556-0.865,2.145c-1.174,1.086-3.084,1.086-4.26,0c-0.636-0.589-0.916-1.374-0.863-2.145
	C28.713,7.447,31.283,7.447,32.994,6.041" fill="white"/>
<path d="M40.512,21.123C34.477,21.997,27,28.161,27,42h2.047l12.952-6L40.512,21.123z" fill="white"/>
</svg>
